<svg width="469" height="469" viewBox="0 0 469 469" fill="none" xmlns="http://www.w3.org/2000/svg">
<g clip-path="url(#clip0)">
<path fill-rule="evenodd" clip-rule="evenodd" d="M468.247 234.122C468.247 105.031 363.553 0 234.122 0C105.031 0 0 105.031 0 234.122C0 363.55 105.031 468.254 234.122 468.254C363.553 468.254 468.247 363.55 468.247 234.122Z" fill="#90DFAA"/>
<path fill-rule="evenodd" clip-rule="evenodd" d="M112.915 148.639H328.062V309.585H112.915V148.639Z" fill="white"/>
<path fill-rule="evenodd" clip-rule="evenodd" d="M185.765 178.455H294.856V188.956H185.765V178.455ZM185.765 224.2H294.856V234.701H185.765V224.2Z" fill="#E6E6E6"/>
<path fill-rule="evenodd" clip-rule="evenodd" d="M146.121 215.046H174.576V243.168H146.121V215.046Z" fill="#90DFAA"/>
<path fill-rule="evenodd" clip-rule="evenodd" d="M185.765 269.589H294.856V280.1H185.765V269.589Z" fill="#E6E6E6"/>
<path fill-rule="evenodd" clip-rule="evenodd" d="M146.121 260.449H174.576V288.573H146.121V260.449Z" fill="#FFD05B"/>
<path fill-rule="evenodd" clip-rule="evenodd" d="M146.121 169.651H174.576V197.77H146.121V169.651Z" fill="#FD8469"/>
<path fill-rule="evenodd" clip-rule="evenodd" d="M311.464 359.724L281.643 332.625C266.403 319.403 257.247 302.8 254.881 285.864C254.544 282.816 254.207 280.099 254.207 277.051V232.666C254.207 232.666 301.299 221.823 311.801 212.337C322.312 221.823 369.404 232.666 369.404 232.666V277.051C369.404 280.099 368.72 282.816 368.384 285.864C366.345 302.8 357.2 319.403 341.957 332.625L311.464 359.724Z" fill="#253645"/>
<path fill-rule="evenodd" clip-rule="evenodd" d="M112.915 148.639H328.062V309.585H112.915V148.639ZM342.64 309.585V324.486H98V109H342.64V148.639V309.585Z" fill="#324A5E"/>
<path fill-rule="evenodd" clip-rule="evenodd" d="M311.383 353.107L284.201 328.286C270.31 316.175 261.965 300.967 259.808 285.454C259.501 282.663 259.194 280.174 259.194 277.382V236.727C259.194 236.727 302.118 226.796 311.69 218.107C321.27 226.796 364.194 236.727 364.194 236.727V277.382C364.194 280.174 363.571 282.663 363.264 285.454C361.406 300.967 353.07 316.175 339.177 328.286L311.383 353.107Z" fill="white"/>
<path d="M276.754 269.979L280.914 285.563L286.034 269.979H291.026L296.146 285.563L300.306 269.979H306.866L299.666 294.107H293.266L288.53 280.123L283.794 294.107H277.394L270.194 269.979H276.754ZM322.158 276.155C321.475 275.6 320.792 275.195 320.11 274.939C319.427 274.662 318.766 274.523 318.126 274.523C317.315 274.523 316.654 274.715 316.142 275.099C315.63 275.483 315.374 275.984 315.374 276.603C315.374 277.03 315.502 277.382 315.758 277.659C316.014 277.936 316.344 278.182 316.75 278.395C317.176 278.587 317.646 278.758 318.158 278.907C318.691 279.056 319.214 279.216 319.726 279.387C321.774 280.07 323.267 280.987 324.206 282.139C325.166 283.27 325.646 284.752 325.646 286.587C325.646 287.824 325.432 288.944 325.006 289.947C324.6 290.95 323.992 291.814 323.182 292.539C322.392 293.243 321.411 293.787 320.238 294.171C319.086 294.576 317.774 294.779 316.302 294.779C313.251 294.779 310.424 293.872 307.822 292.059L310.51 287.003C311.448 287.835 312.376 288.454 313.294 288.859C314.211 289.264 315.118 289.467 316.014 289.467C317.038 289.467 317.795 289.232 318.286 288.763C318.798 288.294 319.054 287.76 319.054 287.163C319.054 286.8 318.99 286.491 318.862 286.235C318.734 285.958 318.52 285.712 318.222 285.499C317.923 285.264 317.528 285.051 317.038 284.859C316.568 284.667 315.992 284.454 315.31 284.219C314.499 283.963 313.699 283.686 312.91 283.387C312.142 283.067 311.448 282.651 310.83 282.139C310.232 281.627 309.742 280.987 309.358 280.219C308.995 279.43 308.814 278.438 308.814 277.243C308.814 276.048 309.006 274.971 309.39 274.011C309.795 273.03 310.35 272.198 311.054 271.515C311.779 270.811 312.654 270.267 313.678 269.883C314.723 269.499 315.886 269.307 317.166 269.307C318.36 269.307 319.608 269.478 320.91 269.819C322.211 270.139 323.459 270.619 324.654 271.259L322.158 276.155ZM335.869 279.291H344.925V269.979H351.197V294.107H344.925V284.155H335.869V294.107H329.597V269.979H335.869V279.291Z" fill="#253645"/>
<path fill-rule="evenodd" clip-rule="evenodd" d="M254.544 128.641C254.544 134.07 258.949 138.469 264.362 138.469C269.786 138.469 274.189 134.07 274.189 128.641C274.189 123.223 269.786 118.828 264.362 118.828C258.949 118.828 254.544 123.223 254.544 128.641Z" fill="#FD8469"/>
<path fill-rule="evenodd" clip-rule="evenodd" d="M308.416 128.641C308.416 134.07 312.82 138.469 318.244 138.469C323.658 138.469 328.062 134.07 328.062 128.641C328.062 123.223 323.658 118.828 318.244 118.828C312.82 118.828 308.416 123.223 308.416 128.641Z" fill="#FFD05B"/>
<path fill-rule="evenodd" clip-rule="evenodd" d="M281.642 128.641C281.642 134.07 286.057 138.469 291.471 138.469C296.557 138.469 300.952 134.07 300.952 128.641C300.952 123.223 296.556 118.828 291.471 118.828C286.057 118.828 281.642 123.223 281.642 128.641Z" fill="#90DFAA"/>
</g>
<defs>
<clipPath id="clip0">
<rect width="468.247" height="468.254" fill="white"/>
</clipPath>
</defs>
</svg>
